<?xml version="1.0" encoding="UTF-8"?>
<svg xmlns="http://www.w3.org/2000/svg" xmlns:xlink="http://www.w3.org/1999/xlink" width="13.772" height="23.215" viewBox="0 0 13.772 23.215">
    <defs>
        <clipPath id="clip-path">
            <rect id="artist_activated" width="13.772" height="23.215" fill="#fff"/>
        </clipPath>
    </defs>
    <g id="Group_4367" transform="translate(0 -0.003)">
        <g id="Group_4354" transform="translate(0 0.003)" clip-path="url(#clip-path)">
            <path id="Path_18682" d="M135.451,8.191V7.309H133.5v-.63h1.948V5.8H133.5V5.174h1.947V4.291h-1.954c0-.152,0-.293,0-.434a3.838,3.838,0,0,1,1.289-2.845,3.776,3.776,0,0,1,2.532-1A4.587,4.587,0,0,1,138.78.14a3.858,3.858,0,0,1,2.8,2.993,4.5,4.5,0,0,1,.076,1.149H139.7v.882h1.949v.629H139.7v.882h1.95V7.3H139.7v.887h1.946c0,.037.006.061.006.084,0,1.733.006,3.466,0,5.2a3.892,3.892,0,0,1-2.763,3.732,3.785,3.785,0,0,1-1.051.168,4.74,4.74,0,0,1-1.655-.189,3.883,3.883,0,0,1-2.088-1.629,3.923,3.923,0,0,1-.606-2.167q0-2.531,0-5.062V8.191Z" transform="translate(-130.692 -0.003)" fill="#fff"/>
            <path id="Path_18683" d="M13.76,484.395c0,.02,0,.037,0,.054,0,1.083.023,2.167-.013,3.249a6.545,6.545,0,0,1-1.364,3.792,6.815,6.815,0,0,1-3.779,2.537c-.023.006-.045.015-.083.027.054.166.1.329.16.488a4.059,4.059,0,0,0,.945,1.563,2.205,2.205,0,0,0,1.617.648c.559,0,1.118,0,1.677,0,.031,0,.061,0,.1,0v.689H.744v-.694H.868c.528,0,1.055-.01,1.583,0a2.307,2.307,0,0,0,1.987-.991,4.9,4.9,0,0,0,.787-1.677.155.155,0,0,0,0-.036c-.2-.063-.408-.115-.605-.19A6.811,6.811,0,0,1,.111,488.6,6.005,6.005,0,0,1,0,487.345q0-1.436,0-2.872c0-.024,0-.048,0-.08H1.661v.133c0,.929,0,1.859,0,2.788a5.132,5.132,0,0,0,1.9,4.073,4.945,4.945,0,0,0,2.726,1.156A5.088,5.088,0,0,0,10.621,491a5.011,5.011,0,0,0,1.465-3.242c.019-.261.017-.523.018-.785,0-.814,0-1.628,0-2.442v-.134Z" transform="translate(0 -474.231)" fill="#fff"/>
        </g>
    </g>
</svg>
