<svg xmlns="http://www.w3.org/2000/svg" width="14" height="20" viewBox="0 0 14 20">
    <path id="event"
        d="M-3202.781-2813.171h-10a2,2,0,0,1-2-2v-16a2,2,0,0,1,2-2h10a2,2,0,0,1,2,2v16A2,2,0,0,1-3202.781-2813.171Zm-5-10.861a3.614,3.614,0,0,0-3.61,3.61,3.613,3.613,0,0,0,3.61,3.609,3.613,3.613,0,0,0,3.609-3.609A3.614,3.614,0,0,0-3207.781-2824.032Zm0-5.319a1.807,1.807,0,0,0-1.8,1.8,1.807,1.807,0,0,0,1.8,1.8,1.807,1.807,0,0,0,1.805-1.8A1.807,1.807,0,0,0-3207.782-2829.351Z"
        transform="translate(3214.782 2833.17)" fill="#fff" opacity="0.3" />
</svg>
