<svg xmlns="http://www.w3.org/2000/svg" width="22.068" height="21.11" viewBox="0 0 22.068 21.11">
    <path id="Subtraction_6"
        d="M17.033,21.109a1.816,1.816,0,0,1-.726-.162c-.728-.317-1.444-.695-2.136-1.06-.236-.124-.471-.248-.707-.371-.266-.137-.534-.281-.792-.42-.438-.236-.891-.48-1.348-.7a.69.69,0,0,0-.287-.055.834.834,0,0,0-.36.076c-.71.356-1.429.728-2.123,1.087-.846.437-1.72.889-2.588,1.318a2.448,2.448,0,0,1-1.025.271,1.367,1.367,0,0,1-.145-.008c-.76-.082-1.158-.761-1.093-1.864.056-.338.115-.694.177-1.064l0-.029c.209-1.263.446-2.694.7-4.121a.7.7,0,0,0-.236-.714c-.623-.614-1.252-1.243-1.859-1.851-.668-.668-1.357-1.358-2.041-2.03a1.4,1.4,0,0,1-.373-1.5,1.245,1.245,0,0,1,1.132-.907c1.817-.287,3.6-.566,5.38-.82a.846.846,0,0,0,.728-.528c.423-.879.865-1.767,1.291-2.626l0-.006C8.947,2.346,9.3,1.644,9.634.95A1.472,1.472,0,0,1,10.98,0h.042a1.43,1.43,0,0,1,1.342.889l.625,1.254c.577,1.157,1.174,2.354,1.749,3.54a.8.8,0,0,0,.694.5c1.562.217,3.146.458,4.678.692l.2.03a5.24,5.24,0,0,1,.8.177,1.363,1.363,0,0,1,.916.971A1.3,1.3,0,0,1,21.7,9.276c-1.359,1.41-2.763,2.8-3.957,3.97a.834.834,0,0,0-.274.847c.216,1.219.416,2.461.608,3.662l0,.023q.1.594.191,1.188c.026.157.046.311.061.459a1.62,1.62,0,0,1-.352,1.273A1.26,1.26,0,0,1,17.033,21.109ZM10,12.285a2.815,2.815,0,0,0-.456.038,3.326,3.326,0,0,0-2.325,1.392,1.585,1.585,0,0,0-.313,1.15A1.356,1.356,0,0,0,7.943,16a2.666,2.666,0,0,0,.812.127,3.325,3.325,0,0,0,1.333-.3,3.155,3.155,0,0,0,1.31-1.1,2.208,2.208,0,0,0,.416-1.325c0-1.081,0-2.176.008-3.236v-.056q0-.578.005-1.157V8.832l.029,0a.183.183,0,0,1,.031,0l.042.013a5.553,5.553,0,0,1,1.563.673,1.645,1.645,0,0,1,.754,1.3,3.383,3.383,0,0,1-.281,1.392.411.411,0,0,0,.225.554.406.406,0,0,0,.152.03.425.425,0,0,0,.39-.282c.066-.166.124-.33.174-.485a4.184,4.184,0,0,0,.182-2.308,3.453,3.453,0,0,0-.436-1.056,6.025,6.025,0,0,0-1.091-1.2l-.053-.049c-.361-.33-.77-.7-1.142-1.094a2.142,2.142,0,0,1-.566-.983.572.572,0,0,0-.185-.261.368.368,0,0,0-.247-.1h-.015a.511.511,0,0,0-.2.048.482.482,0,0,0-.306.461v6.925l-.039-.005-.028,0A2.538,2.538,0,0,0,10,12.285Z"
        transform="translate(0 0)" fill="#fff" />
</svg>
